<svg width="28" height="28" viewBox="0 0 28 28" fill="none" xmlns="http://www.w3.org/2000/svg">
<rect width="28" height="28" rx="14" fill="#FDEAF3"/>
<path d="M14 6.5C9.85775 6.5 6.5 9.85775 6.5 14C6.5 18.1423 9.85775 21.5 14 21.5C18.1423 21.5 21.5 18.1423 21.5 14C21.5 9.85775 18.1423 6.5 14 6.5ZM11.183 8.27975L13.439 9.62975V11.2745L11.3458 12.7955L9.81275 12.2653L9.3725 9.61475C9.89237 9.06626 10.5054 8.61427 11.183 8.27975ZM7.71575 15.0793L9.461 13.334L10.991 13.8628L11.8025 16.3625L11.075 17.5438L8.60525 17.3983C8.15866 16.6915 7.85635 15.9034 7.71575 15.0793ZM12.8975 20.2797L12.0095 18.173L12.7318 16.9977H15.2607L15.9447 18.1835L15.1648 20.2685C14.4157 20.4068 13.6479 20.4106 12.8975 20.2797ZM19.169 17.732L16.901 17.5895L16.1975 16.3715L17.0128 13.8628L18.5225 13.3408L20.2565 15.2308C20.0796 16.1335 19.7086 16.987 19.169 17.732ZM18.629 9.617L18.1873 12.2668L16.6573 12.7955L14.564 11.2745V9.629L16.8155 8.279C17.4944 8.61415 18.1085 9.06718 18.629 9.617Z" fill="#E5A9C3"/>
</svg>
