<svg width="28" height="28" viewBox="0 0 28 28" fill="none" xmlns="http://www.w3.org/2000/svg">
<rect width="28" height="28" rx="14" fill="#DFEEFF"/>
<path d="M21.875 19.625H21.3125V12.3125C21.3125 12.0141 21.194 11.728 20.983 11.517C20.772 11.306 20.4859 11.1875 20.1875 11.1875H15.6875V7.8125C15.6875 7.51413 15.569 7.22798 15.358 7.017C15.147 6.80603 14.8609 6.6875 14.5625 6.6875H7.8125C7.51413 6.6875 7.22798 6.80603 7.017 7.017C6.80603 7.22798 6.6875 7.51413 6.6875 7.8125V19.625H6.125C5.97582 19.625 5.83274 19.6843 5.72725 19.7898C5.62176 19.8952 5.5625 20.0383 5.5625 20.1875C5.5625 20.3367 5.62176 20.4798 5.72725 20.5852C5.83274 20.6907 5.97582 20.75 6.125 20.75H21.875C22.0242 20.75 22.1673 20.6907 22.2727 20.5852C22.3782 20.4798 22.4375 20.3367 22.4375 20.1875C22.4375 20.0383 22.3782 19.8952 22.2727 19.7898C22.1673 19.6843 22.0242 19.625 21.875 19.625ZM13.4375 14.5625C13.4375 14.7117 13.3782 14.8548 13.2727 14.9602C13.1673 15.0657 13.0242 15.125 12.875 15.125H10.625C10.4758 15.125 10.3327 15.0657 10.2273 14.9602C10.1218 14.8548 10.0625 14.7117 10.0625 14.5625C10.0625 14.4133 10.1218 14.2702 10.2273 14.1648C10.3327 14.0593 10.4758 14 10.625 14H12.875C13.0242 14 13.1673 14.0593 13.2727 14.1648C13.3782 14.2702 13.4375 14.4133 13.4375 14.5625ZM9.5 9.5H11.75C11.8992 9.5 12.0423 9.55926 12.1477 9.66475C12.2532 9.77024 12.3125 9.91332 12.3125 10.0625C12.3125 10.2117 12.2532 10.3548 12.1477 10.4602C12.0423 10.5657 11.8992 10.625 11.75 10.625H9.5C9.35082 10.625 9.20774 10.5657 9.10225 10.4602C8.99676 10.3548 8.9375 10.2117 8.9375 10.0625C8.9375 9.91332 8.99676 9.77024 9.10225 9.66475C9.20774 9.55926 9.35082 9.5 9.5 9.5ZM9.5 16.8125H11.75C11.8992 16.8125 12.0423 16.8718 12.1477 16.9773C12.2532 17.0827 12.3125 17.2258 12.3125 17.375C12.3125 17.5242 12.2532 17.6673 12.1477 17.7727C12.0423 17.8782 11.8992 17.9375 11.75 17.9375H9.5C9.35082 17.9375 9.20774 17.8782 9.10225 17.7727C8.99676 17.6673 8.9375 17.5242 8.9375 17.375C8.9375 17.2258 8.99676 17.0827 9.10225 16.9773C9.20774 16.8718 9.35082 16.8125 9.5 16.8125ZM15.6875 12.3125H20.1875V19.625H15.6875V12.3125ZM19.0625 17.375C19.0625 17.5242 19.0032 17.6673 18.8977 17.7727C18.7923 17.8782 18.6492 17.9375 18.5 17.9375H17.375C17.2258 17.9375 17.0827 17.8782 16.9773 17.7727C16.8718 17.6673 16.8125 17.5242 16.8125 17.375C16.8125 17.2258 16.8718 17.0827 16.9773 16.9773C17.0827 16.8718 17.2258 16.8125 17.375 16.8125H18.5C18.6492 16.8125 18.7923 16.8718 18.8977 16.9773C19.0032 17.0827 19.0625 17.2258 19.0625 17.375ZM16.8125 14.5625C16.8125 14.4133 16.8718 14.2702 16.9773 14.1648C17.0827 14.0593 17.2258 14 17.375 14H18.5C18.6492 14 18.7923 14.0593 18.8977 14.1648C19.0032 14.2702 19.0625 14.4133 19.0625 14.5625C19.0625 14.7117 19.0032 14.8548 18.8977 14.9602C18.7923 15.0657 18.6492 15.125 18.5 15.125H17.375C17.2258 15.125 17.0827 15.0657 16.9773 14.9602C16.8718 14.8548 16.8125 14.7117 16.8125 14.5625Z" fill="#82ACEF"/>
</svg>
