<svg width="30" height="30" viewBox="0 0 30 30" fill="none" xmlns="http://www.w3.org/2000/svg">
<g filter="url(#filter0_b_268_15722)">
<path d="M10.3851 11.7843L14.9926 16.3918L19.6001 11.7843C19.71 11.6743 19.8406 11.5871 19.9842 11.5276C20.1278 11.4681 20.2818 11.4375 20.4373 11.4375C20.5928 11.4375 20.7467 11.4681 20.8904 11.5276C21.034 11.5871 21.1645 11.6743 21.2745 11.7843C21.3844 11.8942 21.4716 12.0247 21.5311 12.1684C21.5906 12.312 21.6212 12.466 21.6212 12.6215C21.6212 12.7769 21.5906 12.9309 21.5311 13.0745C21.4716 13.2182 21.3844 13.3487 21.2745 13.4587L15.8238 18.9093C15.714 19.0194 15.5835 19.1067 15.4398 19.1663C15.2962 19.2259 15.1422 19.2566 14.9867 19.2566C14.8311 19.2566 14.6771 19.2259 14.5335 19.1663C14.3898 19.1067 14.2593 19.0194 14.1495 18.9093L8.69884 13.4587C8.58875 13.3488 8.50142 13.2183 8.44183 13.0746C8.38224 12.931 8.35156 12.777 8.35156 12.6215C8.35156 12.4659 8.38224 12.3119 8.44183 12.1683C8.50142 12.0246 8.58875 11.8941 8.69884 11.7843C9.16196 11.333 9.92196 11.3211 10.3851 11.7843Z" fill="#979798"/>
</g>
<defs>
<filter id="filter0_b_268_15722" x="-39.2578" y="-39.248" width="108.5" height="108.5" filterUnits="userSpaceOnUse" color-interpolation-filters="sRGB">
<feFlood flood-opacity="0" result="BackgroundImageFix"/>
<feGaussianBlur in="BackgroundImageFix" stdDeviation="20"/>
<feComposite in2="SourceAlpha" operator="in" result="effect1_backgroundBlur_268_15722"/>
<feBlend mode="normal" in="SourceGraphic" in2="effect1_backgroundBlur_268_15722" result="shape"/>
</filter>
</defs>
</svg>
