<svg width="28" height="28" viewBox="0 0 28 28" fill="none" xmlns="http://www.w3.org/2000/svg">
<rect width="28" height="28" rx="14" fill="#FEEBE9"/>
<path d="M21.875 12.875H21.1156L19.1609 8.48047C19.0734 8.28133 18.9296 8.11206 18.7473 7.99341C18.5649 7.87476 18.3519 7.81189 18.1344 7.8125H9.86562C9.64808 7.81189 9.43508 7.87476 9.25274 7.99341C9.07039 8.11206 8.92663 8.28133 8.83906 8.48047L6.88437 12.875H6.125C5.97582 12.875 5.83274 12.9343 5.72725 13.0398C5.62176 13.1452 5.5625 13.2883 5.5625 13.4375C5.5625 13.5867 5.62176 13.7298 5.72725 13.8353C5.83274 13.9407 5.97582 14 6.125 14H6.6875V19.625C6.6875 19.9234 6.80603 20.2095 7.017 20.4205C7.22798 20.6315 7.51413 20.75 7.8125 20.75H9.5C9.79837 20.75 10.0845 20.6315 10.2955 20.4205C10.5065 20.2095 10.625 19.9234 10.625 19.625V18.5H17.375V19.625C17.375 19.9234 17.4935 20.2095 17.7045 20.4205C17.9155 20.6315 18.2016 20.75 18.5 20.75H20.1875C20.4859 20.75 20.772 20.6315 20.983 20.4205C21.194 20.2095 21.3125 19.9234 21.3125 19.625V14H21.875C22.0242 14 22.1673 13.9407 22.2727 13.8353C22.3782 13.7298 22.4375 13.5867 22.4375 13.4375C22.4375 13.2883 22.3782 13.1452 22.2727 13.0398C22.1673 12.9343 22.0242 12.875 21.875 12.875ZM10.625 16.25H9.5C9.35082 16.25 9.20774 16.1907 9.10225 16.0853C8.99676 15.9798 8.9375 15.8367 8.9375 15.6875C8.9375 15.5383 8.99676 15.3952 9.10225 15.2898C9.20774 15.1843 9.35082 15.125 9.5 15.125H10.625C10.7742 15.125 10.9173 15.1843 11.0227 15.2898C11.1282 15.3952 11.1875 15.5383 11.1875 15.6875C11.1875 15.8367 11.1282 15.9798 11.0227 16.0853C10.9173 16.1907 10.7742 16.25 10.625 16.25ZM18.5 16.25H17.375C17.2258 16.25 17.0827 16.1907 16.9773 16.0853C16.8718 15.9798 16.8125 15.8367 16.8125 15.6875C16.8125 15.5383 16.8718 15.3952 16.9773 15.2898C17.0827 15.1843 17.2258 15.125 17.375 15.125H18.5C18.6492 15.125 18.7923 15.1843 18.8977 15.2898C19.0032 15.3952 19.0625 15.5383 19.0625 15.6875C19.0625 15.8367 19.0032 15.9798 18.8977 16.0853C18.7923 16.1907 18.6492 16.25 18.5 16.25Z" fill="#EE9991"/>
</svg>
