<svg width="28" height="28" viewBox="0 0 28 28" fill="none" xmlns="http://www.w3.org/2000/svg">
<rect width="28" height="28" rx="14" fill="#DEF4EE"/>
<path fill-rule="evenodd" clip-rule="evenodd" d="M16.3857 6.5C16.8522 6.50004 17.3019 6.67397 17.647 6.98781C17.9921 7.30166 18.2078 7.73287 18.2521 8.19725L18.7947 13.8935C18.81 14.0514 18.7916 14.2107 18.7407 14.3609C18.6898 14.5112 18.6076 14.6489 18.4996 14.765V16.25C18.4996 16.3495 18.4601 16.4448 18.3897 16.5152C18.3194 16.5855 18.224 16.625 18.1246 16.625H16.9996V21.125C16.9996 21.2245 16.9601 21.3198 16.8897 21.3902C16.8194 21.4605 16.724 21.5 16.6246 21.5H11.3746C11.2751 21.5 11.1797 21.4605 11.1094 21.3902C11.0391 21.3198 10.9996 21.2245 10.9996 21.125V16.625H9.87456C9.77511 16.625 9.67973 16.5855 9.6094 16.5152C9.53907 16.4448 9.49956 16.3495 9.49956 16.25V14.765C9.39149 14.6489 9.3093 14.5112 9.25842 14.3609C9.20754 14.2107 9.18915 14.0514 9.20444 13.8935L9.74706 8.19725C9.79129 7.73287 10.007 7.30166 10.3521 6.98781C10.6973 6.67397 11.147 6.50004 11.6134 6.5H12.8746C12.8746 6.79837 12.9931 7.08452 13.2041 7.2955C13.415 7.50647 13.7012 7.625 13.9996 7.625C14.2979 7.625 14.5841 7.50647 14.7951 7.2955C15.006 7.08452 15.1246 6.79837 15.1246 6.5H16.3857ZM17.7496 15.875H16.9996V15.125H17.7496V15.875ZM10.3246 15.125H10.9996V15.875H10.2496V15.125H10.3246ZM11.3746 14.375H16.6246V13.625H11.3746V14.375Z" fill="#8DC8B9"/>
</svg>
