<svg width="85" height="85" viewBox="0 0 85 85" fill="none" xmlns="http://www.w3.org/2000/svg">
<path d="M9.91708 18.4167L24.7921 28.3333L39.6175 7.57916C39.9451 7.12005 40.3776 6.74583 40.8791 6.48763C41.3805 6.22943 41.9364 6.09473 42.5004 6.09473C43.0644 6.09473 43.6203 6.22943 44.1217 6.48763C44.6232 6.74583 45.0557 7.12005 45.3833 7.57916L60.2087 28.3333L75.0837 18.4167C75.6467 18.0421 76.3051 17.8366 76.9812 17.8243C77.6572 17.812 78.3227 17.9935 78.8989 18.3473C79.4751 18.7012 79.938 19.2126 80.2328 19.8211C80.5276 20.4296 80.6421 21.1098 80.5627 21.7812L74.7438 71.2477C74.6423 72.1092 74.2281 72.9035 73.5799 73.48C72.9316 74.0564 72.0943 74.3749 71.2269 74.375H13.7739C12.9065 74.3749 12.0692 74.0564 11.421 73.48C10.7727 72.9035 10.3586 72.1092 10.2571 71.2477L4.43812 21.7777C4.35949 21.1065 4.47454 20.4268 4.76969 19.8189C5.06484 19.2109 5.52776 18.7001 6.1038 18.3468C6.67985 17.9934 7.34497 17.8122 8.02065 17.8246C8.69634 17.837 9.35437 18.0424 9.91708 18.4167ZM42.5004 53.125C44.379 53.125 46.1807 52.3787 47.5091 51.0503C48.8375 49.722 49.5837 47.9203 49.5837 46.0417C49.5837 44.163 48.8375 42.3614 47.5091 41.033C46.1807 39.7046 44.379 38.9583 42.5004 38.9583C40.6218 38.9583 38.8201 39.7046 37.4917 41.033C36.1634 42.3614 35.4171 44.163 35.4171 46.0417C35.4171 47.9203 36.1634 49.722 37.4917 51.0503C38.8201 52.3787 40.6218 53.125 42.5004 53.125Z" fill="#C9C9E3"/>
</svg>
