<svg width="26" height="26" viewBox="0 0 26 26" fill="none" xmlns="http://www.w3.org/2000/svg">
<circle cx="13" cy="13" r="13" fill="#C8C8CB" fill-opacity="0.5"/>
<path d="M7.31548 19.434C7.21143 19.4338 7.10855 19.412 7.01339 19.3699C6.91822 19.3278 6.83286 19.2664 6.76273 19.1895C6.69133 19.1133 6.63685 19.0228 6.60285 18.9241C6.56886 18.8253 6.55612 18.7205 6.56548 18.6165L6.74923 16.596L15.2377 8.1105L17.8905 10.7625L9.40423 19.2472L7.38373 19.431C7.36104 19.4331 7.33827 19.4341 7.31548 19.434ZM18.42 10.2322L15.768 7.58025L17.3587 5.9895C17.4284 5.91976 17.5111 5.86444 17.6021 5.8267C17.6932 5.78896 17.7908 5.76953 17.8894 5.76953C17.9879 5.76953 18.0855 5.78896 18.1766 5.8267C18.2676 5.86444 18.3503 5.91976 18.42 5.9895L20.0107 7.58025C20.0805 7.6499 20.1358 7.73262 20.1735 7.82367C20.2113 7.91471 20.2307 8.01231 20.2307 8.11087C20.2307 8.20943 20.2113 8.30703 20.1735 8.39808C20.1358 8.48913 20.0805 8.57184 20.0107 8.6415L18.4207 10.2315L18.42 10.2322Z" fill="white"/>
</svg>
