<svg width="28" height="28" viewBox="0 0 28 28" fill="none" xmlns="http://www.w3.org/2000/svg">
<rect width="28" height="28" rx="14" fill="#DFEEFF"/>
<path d="M20.2106 9.30115C20.2054 9.29587 19.1366 10.3523 17.0097 12.4758L15.5173 10.9834L18.6972 7.80349C17.0237 6.79627 14.8739 7.05467 13.48 8.44861C12.9471 8.98115 12.5637 9.64443 12.3681 10.3719C12.1725 11.0994 12.1716 11.8656 12.3655 12.5935L12.3972 12.7113L7.41377 17.6929C7.30479 17.8019 7.30479 17.9812 7.41377 18.0902L9.89931 20.5757C10.0083 20.6847 10.1876 20.6847 10.2966 20.5757L15.2765 15.5959L15.3942 15.6275C16.8655 16.0195 18.4458 15.6117 19.5427 14.5148C20.9384 13.1209 21.1968 10.9711 20.2106 9.30115Z" fill="#82ACEF"/>
</svg>
