<svg width="20" height="21" viewBox="0 0 20 21" fill="none" xmlns="http://www.w3.org/2000/svg">
<g clip-path="url(#clip0_226_12462)">
<path d="M18.3341 4.74439C17.5896 3.21661 15.4452 1.96661 12.9507 2.69439C11.7588 3.03869 10.7188 3.77705 10.0007 4.78883C9.28268 3.77705 8.24271 3.03869 7.05074 2.69439C4.55074 1.97772 2.41185 3.21661 1.66741 4.74439C0.622962 6.88328 1.0563 9.28883 2.9563 11.8944C4.44519 13.9333 6.57296 15.9999 9.66185 18.3999C9.75947 18.4761 9.87972 18.5174 10.0035 18.5174C10.1273 18.5174 10.2476 18.4761 10.3452 18.3999C13.4285 16.0055 15.5619 13.9555 17.0507 11.8944C18.9452 9.28883 19.3785 6.88328 18.3341 4.74439Z" fill="#ABACAE"/>
</g>
<defs>
<clipPath id="clip0_226_12462">
<rect width="20" height="20" fill="white" transform="translate(0 0.5)"/>
</clipPath>
</defs>
</svg>
