<svg width="20" height="21" viewBox="0 0 20 21" fill="none" xmlns="http://www.w3.org/2000/svg">
<g opacity="0.99">
<path d="M10.0013 2.1665C5.4063 2.1665 1.66797 5.90484 1.66797 10.4998C1.66797 15.0948 5.4063 18.8332 10.0013 18.8332C14.5963 18.8332 18.3346 15.0948 18.3346 10.4998C18.3346 5.90484 14.5963 2.1665 10.0013 2.1665ZM10.8346 15.4998H9.16797V13.8332H10.8346V15.4998ZM11.648 11.429C11.4846 11.5607 11.3271 11.6865 11.2021 11.8115C10.8621 12.1507 10.8355 12.459 10.8346 12.4723V12.5832H9.16797V12.444C9.16797 12.3457 9.19214 11.4632 10.023 10.6323C10.1855 10.4698 10.3871 10.3048 10.5988 10.1332C11.2105 9.63734 11.6121 9.27567 11.6121 8.77734C11.6025 8.35635 11.4284 7.95588 11.1272 7.6616C10.826 7.36733 10.4216 7.20262 10.0005 7.20273C9.57938 7.20284 9.17506 7.36775 8.87401 7.66219C8.57296 7.95662 8.3991 8.35718 8.38964 8.77817H6.72297C6.72297 6.97067 8.1938 5.49984 10.0013 5.49984C11.8088 5.49984 13.2796 6.97067 13.2796 8.77817C13.2796 10.109 12.2971 10.9032 11.648 11.429Z" fill="#ABACAE"/>
</g>
</svg>
