<svg width="28" height="28" viewBox="0 0 28 28" fill="none" xmlns="http://www.w3.org/2000/svg">
<rect width="28" height="28" rx="14" fill="#FFF4F9"/>
<path d="M14.902 7.14901C14.6542 6.92638 14.3329 6.80322 13.9997 6.80322C13.6666 6.80322 13.3453 6.92638 13.0975 7.14901L8.1475 11.5968C8.00676 11.7234 7.8942 11.8781 7.81714 12.051C7.74008 12.2239 7.70024 12.411 7.7002 12.6003V18.9498C7.7002 19.3079 7.84243 19.6512 8.0956 19.9044C8.34878 20.1576 8.69215 20.2998 9.0502 20.2998H10.8502C11.2082 20.2998 11.5516 20.1576 11.8048 19.9044C12.058 19.6512 12.2002 19.3079 12.2002 18.9498V15.3498C12.2002 15.2305 12.2476 15.116 12.332 15.0316C12.4164 14.9472 12.5308 14.8998 12.6502 14.8998H15.3502C15.4695 14.8998 15.584 14.9472 15.6684 15.0316C15.7528 15.116 15.8002 15.2305 15.8002 15.3498V18.9498C15.8002 19.3079 15.9424 19.6512 16.1956 19.9044C16.4488 20.1576 16.7922 20.2998 17.1502 20.2998H18.9502C19.3082 20.2998 19.6516 20.1576 19.9048 19.9044C20.158 19.6512 20.3002 19.3079 20.3002 18.9498V12.6003C20.3002 12.411 20.2603 12.2239 20.1832 12.051C20.1062 11.8781 19.9936 11.7234 19.8529 11.5968L14.9029 7.14901H14.902Z" fill="#F399BE"/>
</svg>
