<svg width="28" height="28" viewBox="0 0 28 28" fill="none" xmlns="http://www.w3.org/2000/svg">
<rect width="28" height="28" rx="14" fill="#FDFDEA"/>
<path d="M21.0977 15.6079C21.0977 14.2696 20.1369 13.1579 18.8673 12.9177L17.9409 10.152C17.8063 9.74165 17.5452 9.38448 17.195 9.13173C16.8449 8.87898 16.4237 8.74364 15.9918 8.74513H12.4781C11.5928 8.74513 10.8036 9.30787 10.5291 10.152L9.98694 11.7647L9.02615 10.804L9.22517 10.6049C9.28871 10.5414 9.33911 10.466 9.37349 10.383C9.40788 10.2999 9.42558 10.211 9.42558 10.1211C9.42558 10.0313 9.40788 9.94228 9.37349 9.85927C9.33911 9.77625 9.28871 9.70082 9.22517 9.63729C9.16164 9.57375 9.08621 9.52335 9.00319 9.48896C8.92018 9.45458 8.8312 9.43688 8.74135 9.43688C8.65149 9.43688 8.56252 9.45458 8.47951 9.48896C8.39649 9.52335 8.32106 9.57375 8.25753 9.63729L6.88498 11.0098C6.75666 11.1382 6.68457 11.3122 6.68457 11.4937C6.68457 11.6751 6.75666 11.8492 6.88498 11.9775C7.01329 12.1058 7.18733 12.1779 7.3688 12.1779C7.55027 12.1779 7.72431 12.1058 7.85262 11.9775L8.05851 11.7716L9.28694 13C8.18204 13.3569 7.37223 14.3863 7.37223 15.6079C7.37223 16.6373 7.94184 17.5226 8.77909 17.9961C8.85711 18.4774 9.10341 18.9154 9.47416 19.2321C9.8449 19.5488 10.316 19.7237 10.8036 19.7255C11.6958 19.7255 12.4507 19.1491 12.7389 18.353H15.7379C16.0193 19.1491 16.7742 19.7255 17.6732 19.7255C18.1608 19.7237 18.6319 19.5488 19.0027 19.2321C19.3734 18.9154 19.6197 18.4774 19.6977 17.9961C20.5281 17.5226 21.0977 16.6373 21.0977 15.6079ZM10.8036 18.353C10.4262 18.353 10.1173 18.0442 10.1173 17.6667C10.1173 17.2892 10.4262 16.9804 10.8036 16.9804C11.1811 16.9804 11.4899 17.2892 11.4899 17.6667C11.4899 18.0442 11.1811 18.353 10.8036 18.353ZM13.5487 12.8628H11.085L11.0713 12.8491L11.8262 10.5843C11.8722 10.448 11.9599 10.3296 12.0769 10.2459C12.1939 10.1622 12.3342 10.1173 12.4781 10.1177H13.5487V12.8628ZM14.9213 10.1177H15.9918C16.1357 10.1173 16.2761 10.1622 16.3931 10.2459C16.51 10.3296 16.5978 10.448 16.6438 10.5843L17.3987 12.8628H14.9213V10.1177ZM17.6663 18.353C17.2889 18.353 16.9801 18.0442 16.9801 17.6667C16.9801 17.2892 17.2889 16.9804 17.6663 16.9804C18.0438 16.9804 18.3526 17.2892 18.3526 17.6667C18.3526 18.0442 18.0438 18.353 17.6663 18.353Z" fill="#BDBF4E"/>
</svg>
