<svg width="20" height="21" viewBox="0 0 20 21" fill="none" xmlns="http://www.w3.org/2000/svg">
<path d="M1.66797 10.4998L5.83464 13.8332V11.3332H13.3346V9.6665H5.83464V7.1665L1.66797 10.4998Z" fill="#ABACAE"/>
<path d="M10.8346 2.99905C9.84919 2.99632 8.87305 3.18914 7.96271 3.56636C7.05236 3.94357 6.22592 4.49766 5.53125 5.19655L6.70958 6.37489C7.81125 5.27322 9.27625 4.66572 10.8346 4.66572C12.3929 4.66572 13.8579 5.27322 14.9596 6.37489C16.0612 7.47655 16.6688 8.94155 16.6688 10.4999C16.6688 12.0582 16.0612 13.5232 14.9596 14.6249C13.8579 15.7266 12.3929 16.3341 10.8346 16.3341C9.27625 16.3341 7.81125 15.7266 6.70958 14.6249L5.53125 15.8032C6.94708 17.2199 8.83042 18.0007 10.8346 18.0007C12.8387 18.0007 14.7221 17.2199 16.1379 15.8032C17.5546 14.3874 18.3354 12.5041 18.3354 10.4999C18.3354 8.49572 17.5546 6.61239 16.1379 5.19655C15.4432 4.49766 14.6168 3.94357 13.7065 3.56636C12.7961 3.18914 11.82 2.99632 10.8346 2.99905Z" fill="#ABACAE"/>
</svg>
