<svg width="52" height="23" viewBox="0 0 52 23" fill="none" xmlns="http://www.w3.org/2000/svg">
<path d="M0.704 17V0.199999H3.248V14.984H10.88V17H0.704ZM18.5744 17.288C17.4384 17.288 16.4144 17.032 15.5024 16.52C14.6064 15.992 13.8944 15.264 13.3664 14.336C12.8384 13.392 12.5744 12.296 12.5744 11.048C12.5744 9.8 12.8384 8.712 13.3664 7.784C13.9104 6.84 14.6384 6.112 15.5504 5.6C16.4624 5.072 17.4784 4.808 18.5984 4.808C19.7344 4.808 20.7504 5.072 21.6464 5.6C22.5584 6.112 23.2784 6.84 23.8064 7.784C24.3504 8.712 24.6224 9.8 24.6224 11.048C24.6224 12.296 24.3504 13.392 23.8064 14.336C23.2784 15.264 22.5584 15.992 21.6464 16.52C20.7344 17.032 19.7104 17.288 18.5744 17.288ZM18.5744 15.104C19.1824 15.104 19.7424 14.952 20.2544 14.648C20.7824 14.344 21.2064 13.896 21.5264 13.304C21.8464 12.696 22.0064 11.944 22.0064 11.048C22.0064 10.152 21.8464 9.408 21.5264 8.816C21.2224 8.208 20.8064 7.752 20.2784 7.448C19.7664 7.144 19.2064 6.992 18.5984 6.992C17.9904 6.992 17.4224 7.144 16.8944 7.448C16.3824 7.752 15.9664 8.208 15.6464 8.816C15.3264 9.408 15.1664 10.152 15.1664 11.048C15.1664 11.944 15.3264 12.696 15.6464 13.304C15.9664 13.896 16.3824 14.344 16.8944 14.648C17.4064 14.952 17.9664 15.104 18.5744 15.104ZM31.6128 13.352C30.9888 13.352 30.4128 13.28 29.8848 13.136L28.8528 14.144C29.0288 14.256 29.2448 14.352 29.5008 14.432C29.7568 14.512 30.1168 14.584 30.5808 14.648C31.0448 14.712 31.6768 14.776 32.4768 14.84C34.0608 14.984 35.2048 15.368 35.9088 15.992C36.6128 16.6 36.9648 17.416 36.9648 18.44C36.9648 19.144 36.7728 19.808 36.3888 20.432C36.0208 21.072 35.4368 21.584 34.6368 21.968C33.8528 22.368 32.8448 22.568 31.6128 22.568C29.9488 22.568 28.5968 22.248 27.5568 21.608C26.5328 20.984 26.0208 20.032 26.0208 18.752C26.0208 18.256 26.1488 17.76 26.4048 17.264C26.6768 16.784 27.1008 16.328 27.6768 15.896C27.3408 15.752 27.0448 15.6 26.7888 15.44C26.5488 15.264 26.3328 15.088 26.1408 14.912V14.336L28.2048 12.224C27.2768 11.424 26.8128 10.376 26.8128 9.08C26.8128 8.296 26.9968 7.584 27.3648 6.944C27.7488 6.288 28.3008 5.768 29.0208 5.384C29.7408 5 30.6048 4.808 31.6128 4.808C32.2848 4.808 32.9088 4.904 33.4848 5.096H37.9248V6.776L35.8128 6.896C36.1968 7.552 36.3888 8.28 36.3888 9.08C36.3888 9.88 36.1968 10.6 35.8128 11.24C35.4448 11.88 34.9008 12.392 34.1808 12.776C33.4768 13.16 32.6208 13.352 31.6128 13.352ZM31.6128 11.36C32.3488 11.36 32.9408 11.168 33.3888 10.784C33.8528 10.384 34.0848 9.824 34.0848 9.104C34.0848 8.368 33.8528 7.808 33.3888 7.424C32.9408 7.04 32.3488 6.848 31.6128 6.848C30.8608 6.848 30.2528 7.04 29.7888 7.424C29.3408 7.808 29.1168 8.368 29.1168 9.104C29.1168 9.824 29.3408 10.384 29.7888 10.784C30.2528 11.168 30.8608 11.36 31.6128 11.36ZM28.4208 18.512C28.4208 19.2 28.7248 19.712 29.3328 20.048C29.9408 20.4 30.7008 20.576 31.6128 20.576C32.4928 20.576 33.2048 20.384 33.7488 20C34.2928 19.632 34.5648 19.136 34.5648 18.512C34.5648 18.048 34.3808 17.648 34.0128 17.312C33.6448 16.992 32.9488 16.792 31.9248 16.712C31.1568 16.664 30.4768 16.592 29.8848 16.496C29.3248 16.8 28.9408 17.128 28.7328 17.48C28.5248 17.832 28.4208 18.176 28.4208 18.512ZM45.2932 17.288C44.1572 17.288 43.1332 17.032 42.2212 16.52C41.3252 15.992 40.6132 15.264 40.0852 14.336C39.5572 13.392 39.2932 12.296 39.2932 11.048C39.2932 9.8 39.5572 8.712 40.0852 7.784C40.6292 6.84 41.3572 6.112 42.2692 5.6C43.1812 5.072 44.1972 4.808 45.3172 4.808C46.4532 4.808 47.4692 5.072 48.3652 5.6C49.2772 6.112 49.9972 6.84 50.5252 7.784C51.0692 8.712 51.3412 9.8 51.3412 11.048C51.3412 12.296 51.0692 13.392 50.5252 14.336C49.9972 15.264 49.2772 15.992 48.3652 16.52C47.4532 17.032 46.4292 17.288 45.2932 17.288ZM45.2932 15.104C45.9012 15.104 46.4612 14.952 46.9732 14.648C47.5012 14.344 47.9252 13.896 48.2452 13.304C48.5652 12.696 48.7252 11.944 48.7252 11.048C48.7252 10.152 48.5652 9.408 48.2452 8.816C47.9412 8.208 47.5252 7.752 46.9972 7.448C46.4852 7.144 45.9252 6.992 45.3172 6.992C44.7092 6.992 44.1412 7.144 43.6132 7.448C43.1012 7.752 42.6852 8.208 42.3652 8.816C42.0452 9.408 41.8852 10.152 41.8852 11.048C41.8852 11.944 42.0452 12.696 42.3652 13.304C42.6852 13.896 43.1012 14.344 43.6132 14.648C44.1252 14.952 44.6852 15.104 45.2932 15.104Z" fill="#6B5959"/>
</svg>
