<svg width="19" height="20" viewBox="0 0 19 20" fill="none" xmlns="http://www.w3.org/2000/svg">
<g clip-path="url(#clip0_5501_7894)">
<path d="M16.185 10.9562V15.2461H15.5884V10.9562C15.5884 7.89325 13.3164 5.35366 10.3696 4.93029L9.79846 4.84823V5.4252L9.79846 13.6495H9.20182L9.20182 5.4252V4.84823L8.63071 4.93029C5.68396 5.35366 3.4119 7.89325 3.4119 10.9562L3.4119 15.2461H2.81526L2.81526 10.9562C2.81526 7.52218 5.41968 4.68348 8.75701 4.31284L9.20182 4.26344V3.8159V2.67466H9.79846V3.8159V4.26344L10.2433 4.31284C13.5805 4.68348 16.185 7.52218 16.185 10.9562ZM9.50014 -3.91357C1.72349 -3.91357 -4.57129 2.38015 -4.57129 10.1579C-4.57129 17.9346 1.72238 24.2293 9.50014 24.2293C17.2768 24.2293 23.5716 17.9356 23.5716 10.1579C23.5716 2.38121 17.2779 -3.91357 9.50014 -3.91357Z" stroke="#484B5E"/>
</g>
<defs>
<clipPath id="clip0_5501_7894">
<rect width="19" height="19" fill="white" transform="translate(0 0.657715)"/>
</clipPath>
</defs>
</svg>
