<svg width="25" height="25" viewBox="0 0 25 25" fill="none" xmlns="http://www.w3.org/2000/svg">
<g clip-path="url(#clip0_283_14223)">
<path d="M21.4555 13.5506L21.4555 19.3532H20.3546L20.3546 13.5506C20.3546 9.60023 17.4241 6.3242 13.6232 5.77812L13.0521 5.69607V6.27304L13.0521 17.2523H11.9513L11.9513 6.27304V5.69607L11.3801 5.77812C7.57934 6.3242 4.64873 9.60023 4.64873 13.5506V19.3532H3.54789V13.5506C3.54789 8.95077 7.03624 5.14893 11.5064 4.65248L11.9513 4.60308V4.15553V2.49601H13.0521V4.15553V4.60308L13.4969 4.65248C17.967 5.14893 21.4555 8.95077 21.4555 13.5506ZM12.5017 -5.85693C2.35644 -5.85693 -5.85547 2.35359 -5.85547 12.5002C-5.85547 22.6455 2.35499 30.8574 12.5017 30.8574C22.647 30.8574 30.8588 22.6469 30.8588 12.5002C30.8588 2.35497 22.6484 -5.85693 12.5017 -5.85693Z" stroke="#6A5BCD"/>
</g>
<defs>
<clipPath id="clip0_283_14223">
<rect width="25" height="25" fill="white"/>
</clipPath>
</defs>
</svg>
