<svg width="20" height="17" viewBox="0 0 20 17" fill="none" xmlns="http://www.w3.org/2000/svg">
<path d="M19.2 4.8474V13.3998C19.2 14.1955 18.8839 14.9585 18.3213 15.5211C17.7587 16.0837 16.9956 16.3998 16.2 16.3998H3C2.20435 16.3998 1.44129 16.0837 0.87868 15.5211C0.31607 14.9585 0 14.1955 0 13.3998V4.8474L9.2952 10.317C9.38754 10.3715 9.49279 10.4002 9.6 10.4002C9.70721 10.4002 9.81246 10.3715 9.9048 10.317L19.2 4.8474ZM16.2 0.799805C16.9382 0.799689 17.6505 1.07173 18.2006 1.56389C18.7508 2.05605 19.1002 2.73377 19.182 3.4674L9.6 9.10381L0.0180001 3.4674C0.09979 2.73377 0.449189 2.05605 0.999354 1.56389C1.54952 1.07173 2.26182 0.799689 3 0.799805H16.2Z" fill="#9A9CA8"/>
</svg>
