<svg width="20" height="21" viewBox="0 0 20 21" fill="none" xmlns="http://www.w3.org/2000/svg">
<path d="M16.6667 18.8332H5.41667C4.64312 18.8332 3.90125 18.5259 3.35427 17.9789C2.80729 17.4319 2.5 16.6901 2.5 15.9165V4.6665C2.5 4.00346 2.76339 3.36758 3.23223 2.89874C3.70107 2.4299 4.33696 2.1665 5 2.1665H16.6667C16.8877 2.1665 17.0996 2.2543 17.2559 2.41058C17.4122 2.56686 17.5 2.77882 17.5 2.99984V17.9998C17.5 18.2209 17.4122 18.4328 17.2559 18.5891C17.0996 18.7454 16.8877 18.8332 16.6667 18.8332ZM15.8333 17.1665V14.6665H5.41667C5.08515 14.6665 4.7672 14.7982 4.53278 15.0326C4.29836 15.267 4.16667 15.585 4.16667 15.9165C4.16667 16.248 4.29836 16.566 4.53278 16.8004C4.7672 17.0348 5.08515 17.1665 5.41667 17.1665H15.8333Z" fill="#ABACAE"/>
</svg>
