<svg width="28" height="28" viewBox="0 0 28 28" fill="none" xmlns="http://www.w3.org/2000/svg">
<rect width="28" height="28" rx="14" fill="#EAFCFD"/>
<path d="M12.3129 14.8437C12.3129 15.0106 12.2634 15.1738 12.1707 15.3125C12.078 15.4513 11.9462 15.5594 11.792 15.6233C11.6378 15.6871 11.4682 15.7038 11.3045 15.6713C11.1409 15.6387 10.9905 15.5584 10.8725 15.4404C10.7545 15.3224 10.6742 15.172 10.6416 15.0084C10.609 14.8447 10.6257 14.675 10.6896 14.5209C10.7535 14.3667 10.8616 14.2349 11.0004 14.1422C11.1391 14.0495 11.3023 14 11.4691 14C11.6929 14 11.9075 14.0889 12.0658 14.2471C12.224 14.4054 12.3129 14.62 12.3129 14.8437ZM16.5316 15.6875C16.6985 15.6875 16.8616 15.638 17.0004 15.5453C17.1391 15.4526 17.2473 15.3208 17.3112 15.1666C17.375 15.0125 17.3917 14.8428 17.3592 14.6791C17.3266 14.5155 17.2463 14.3651 17.1283 14.2471C17.0103 14.1291 16.8599 14.0488 16.6962 14.0162C16.5326 13.9837 16.3629 14.0004 16.2087 14.0642C16.0546 14.1281 15.9228 14.2362 15.8301 14.375C15.7374 14.5137 15.6879 14.6769 15.6879 14.8437C15.6879 15.0675 15.7768 15.2821 15.935 15.4404C16.0932 15.5986 16.3079 15.6875 16.5316 15.6875ZM21.3621 15.125C21.2139 15.1912 21.0533 15.2248 20.891 15.2234C20.6342 15.224 20.3854 15.1344 20.1879 14.9703V17.9375C20.1879 18.6834 19.8916 19.3988 19.3641 19.9262C18.8367 20.4537 18.1213 20.75 17.3754 20.75H10.6254C9.87946 20.75 9.16409 20.4537 8.63665 19.9262C8.1092 19.3988 7.81288 18.6834 7.81288 17.9375V14.9703C7.61536 15.1344 7.36654 15.224 7.10976 15.2234C6.94749 15.2248 6.78683 15.1912 6.63867 15.125C6.40688 15.0226 6.21705 14.8441 6.10067 14.619C5.98429 14.3939 5.94835 14.1358 5.99882 13.8875L7.15195 7.73515C7.18094 7.58475 7.24015 7.4418 7.32599 7.31496C7.41183 7.18811 7.52252 7.08 7.65136 6.99717C7.7802 6.91435 7.92451 6.85853 8.07555 6.8331C8.22658 6.80767 8.38121 6.81315 8.53007 6.84921L12.3832 7.81249H15.6176L19.4707 6.84921C19.6196 6.81315 19.7742 6.80767 19.9252 6.8331C20.0763 6.85853 20.2206 6.91435 20.3494 6.99717C20.4782 7.08 20.5889 7.18811 20.6748 7.31496C20.7606 7.4418 20.8198 7.58475 20.8488 7.73515L22.0019 13.8875C22.0524 14.1358 22.0165 14.3939 21.9001 14.619C21.7837 14.8441 21.5939 15.0226 21.3621 15.125ZM19.0629 13.5781L15.4137 8.93749H12.5871L8.93788 13.5781V17.9375C8.93974 18.3845 9.11812 18.8126 9.43419 19.1287C9.75025 19.4448 10.1784 19.6231 10.6254 19.625H13.4379V18.732L12.4746 17.7758C12.3849 17.6665 12.3391 17.5277 12.346 17.3865C12.3529 17.2453 12.4122 17.1117 12.5121 17.0117C12.6121 16.9118 12.7457 16.8525 12.8869 16.8456C13.0281 16.8387 13.1669 16.8845 13.2762 16.9742L14.0004 17.7055L14.7246 16.9742C14.8339 16.8845 14.9726 16.8387 15.1139 16.8456C15.2551 16.8525 15.3887 16.9118 15.4886 17.0117C15.5886 17.1117 15.6478 17.2453 15.6548 17.3865C15.6617 17.5277 15.6159 17.6665 15.5262 17.7758L14.5629 18.732V19.625H17.3754C17.8224 19.6231 18.2505 19.4448 18.5666 19.1287C18.8826 18.8126 19.061 18.3845 19.0629 17.9375V13.5781Z" fill="#57D0D7"/>
</svg>
