<svg width="20" height="21" viewBox="0 0 20 21" fill="none" xmlns="http://www.w3.org/2000/svg">
<path d="M10 11.75C10.6904 11.75 11.25 11.1904 11.25 10.5C11.25 9.80964 10.6904 9.25 10 9.25C9.30964 9.25 8.75 9.80964 8.75 10.5C8.75 11.1904 9.30964 11.75 10 11.75Z" fill="#ABACAE"/>
<path d="M18.2425 9.09984L17.5842 6.99984C17.5131 6.75713 17.3939 6.53123 17.2336 6.33561C17.0733 6.13998 16.8753 5.97864 16.6513 5.8612C16.4274 5.74377 16.182 5.67265 15.93 5.65208C15.6779 5.63152 15.4243 5.66193 15.1842 5.7415L14.9009 5.83317C14.6789 5.90654 14.4425 5.92516 14.2118 5.88743C13.9811 5.84971 13.7629 5.75676 13.5759 5.6165L13.4842 5.54984C13.3017 5.41015 13.1546 5.22952 13.0547 5.02253C12.9548 4.81553 12.905 4.58796 12.9092 4.35817V4.12484C12.9133 3.60152 12.7095 3.098 12.3426 2.72484C12.168 2.54855 11.9604 2.40847 11.7316 2.31266C11.5028 2.21684 11.2573 2.16717 11.0092 2.1665H8.88422C8.37436 2.17309 7.88776 2.38083 7.53034 2.74449C7.17293 3.10815 6.97364 3.59828 6.97588 4.10817V4.30817C6.97508 4.55006 6.92001 4.78869 6.81473 5.00647C6.70944 5.22425 6.55663 5.41563 6.36755 5.5665L6.25922 5.64984C6.05034 5.80786 5.80602 5.91247 5.54751 5.95459C5.289 5.9967 5.02412 5.97505 4.77588 5.8915C4.5479 5.81261 4.30627 5.78079 4.06563 5.79798C3.82499 5.81517 3.59034 5.88101 3.37588 5.9915C3.1526 6.10233 2.9545 6.25792 2.79393 6.44859C2.63337 6.63927 2.51376 6.86095 2.44255 7.09984L1.75922 9.2665C1.60075 9.755 1.64139 10.2863 1.87231 10.745C2.10322 11.2037 2.50578 11.5528 2.99255 11.7165H3.12588C3.35043 11.8007 3.55197 11.9366 3.71414 12.1132C3.87631 12.2899 3.99453 12.5023 4.05922 12.7332L4.10922 12.8665C4.20211 13.1216 4.23318 13.3951 4.19986 13.6646C4.16654 13.934 4.06979 14.1917 3.91755 14.4165C3.6094 14.8362 3.47942 15.3605 3.55589 15.8755C3.63236 16.3905 3.90909 16.8545 4.32588 17.1665L6.05088 18.4748C6.37751 18.7123 6.77208 18.838 7.17588 18.8332C7.28396 18.8438 7.39281 18.8438 7.50088 18.8332C7.75097 18.7848 7.98857 18.6859 8.19918 18.5426C8.4098 18.3994 8.58901 18.2147 8.72588 17.9998L8.91755 17.7248C9.052 17.532 9.2299 17.3734 9.4369 17.262C9.6439 17.1505 9.8742 17.0893 10.1092 17.0832C10.3555 17.0771 10.5993 17.1335 10.8179 17.2472C11.0365 17.3609 11.2227 17.5281 11.3592 17.7332L11.4592 17.8748C11.6013 18.0863 11.7852 18.2664 11.9995 18.4041C12.2138 18.5419 12.4541 18.6343 12.7054 18.6756C12.9568 18.717 13.214 18.7065 13.4611 18.6447C13.7083 18.583 13.9402 18.4713 14.1426 18.3165L15.8342 17.0498C16.2342 16.7392 16.5002 16.2873 16.5777 15.7868C16.6551 15.2864 16.5382 14.7752 16.2509 14.3582L16.0342 14.0415C15.9039 13.8402 15.8186 13.6131 15.7841 13.3758C15.7496 13.1385 15.7667 12.8966 15.8342 12.6665C15.9031 12.4202 16.0308 12.1944 16.2065 12.0085C16.3822 11.8227 16.6005 11.6824 16.8425 11.5998L17.0092 11.5415C17.4915 11.3742 17.8898 11.0259 18.1199 10.5702C18.3501 10.1146 18.3941 9.58731 18.2425 9.09984ZM10.0009 13.4165C9.42402 13.4165 8.86011 13.2454 8.38047 12.925C7.90083 12.6045 7.52699 12.1489 7.30623 11.616C7.08548 11.083 7.02772 10.4966 7.14026 9.93082C7.2528 9.36505 7.53059 8.84535 7.93849 8.43744C8.34639 8.02954 8.86609 7.75175 9.43187 7.63921C9.99765 7.52667 10.5841 7.58443 11.117 7.80519C11.65 8.02594 12.1055 8.39978 12.426 8.87942C12.7465 9.35907 12.9176 9.92298 12.9176 10.4998C12.9176 11.2734 12.6103 12.0153 12.0633 12.5622C11.5163 13.1092 10.7744 13.4165 10.0009 13.4165Z" fill="#ABACAE"/>
</svg>
