<svg width="28" height="28" viewBox="0 0 28 28" fill="none" xmlns="http://www.w3.org/2000/svg">
<rect width="28" height="28" rx="14" fill="#E3EDFF"/>
<path d="M9.625 8.75C9.625 8.28587 9.80937 7.84075 10.1376 7.51256C10.4658 7.18437 10.9109 7 11.375 7H16.625C17.0891 7 17.5342 7.18437 17.8624 7.51256C18.1906 7.84075 18.375 8.28587 18.375 8.75V19.25C18.375 19.7141 18.1906 20.1592 17.8624 20.4874C17.5342 20.8156 17.0891 21 16.625 21H11.375C10.9109 21 10.4658 20.8156 10.1376 20.4874C9.80937 20.1592 9.625 19.7141 9.625 19.25V8.75ZM14.875 18.375C14.875 18.1429 14.7828 17.9204 14.6187 17.7563C14.4546 17.5922 14.2321 17.5 14 17.5C13.7679 17.5 13.5454 17.5922 13.3813 17.7563C13.2172 17.9204 13.125 18.1429 13.125 18.375C13.125 18.6071 13.2172 18.8296 13.3813 18.9937C13.5454 19.1578 13.7679 19.25 14 19.25C14.2321 19.25 14.4546 19.1578 14.6187 18.9937C14.7828 18.8296 14.875 18.6071 14.875 18.375Z" fill="#A0AFF4"/>
</svg>
