<svg width="20" height="16" viewBox="0 0 20 16" fill="none" xmlns="http://www.w3.org/2000/svg">
<path d="M0.570313 4.67813L9.70231 9.42756C9.79391 9.47519 9.89564 9.50006 9.99888 9.50006C10.1021 9.50006 10.2039 9.47519 10.2955 9.42756L19.4275 4.67899V12.929C19.4275 13.6405 19.1553 14.3251 18.6666 14.8423C18.1779 15.3595 17.5099 15.6701 16.7995 15.7104L16.6417 15.7147H3.35603C2.64448 15.7148 1.95989 15.4425 1.44269 14.9538C0.925484 14.4652 0.614883 13.7971 0.574598 13.0867L0.570313 12.929V4.67813ZM3.35603 0.286133H16.6417C17.3533 0.286086 18.0379 0.558322 18.5551 1.04699C19.0723 1.53567 19.3829 2.20373 19.4232 2.91413L19.4275 3.07185V3.22956L9.99888 8.13242L0.570313 3.22956V3.07185C0.570266 2.3603 0.842502 1.67571 1.33117 1.15851C1.81985 0.641305 2.48791 0.330703 3.19831 0.290419L3.35603 0.286133H16.6417H3.35603Z" fill="white"/>
</svg>
