<svg width="22" height="22" viewBox="0 0 22 22" fill="none" xmlns="http://www.w3.org/2000/svg">
<path d="M1.83571 20.1668L3.07504 15.6128C2.25842 14.2129 1.82938 12.6208 1.83204 11.0002C1.83204 5.93741 5.93596 1.8335 10.9987 1.8335C16.0615 1.8335 20.1654 5.93741 20.1654 11.0002C20.1654 16.0629 16.0615 20.1668 10.9987 20.1668C9.37876 20.1694 7.78731 19.7407 6.38788 18.9247L1.83571 20.1668ZM7.69046 6.69916C7.57208 6.70651 7.45641 6.73769 7.35038 6.79083C7.25094 6.84714 7.16016 6.91754 7.08088 6.99983C6.97088 7.10341 6.90854 7.19325 6.84163 7.28033C6.50284 7.72124 6.3206 8.26246 6.32371 8.8185C6.32554 9.26766 6.44288 9.70491 6.62621 10.1137C7.00113 10.9406 7.61804 11.816 8.43296 12.6272C8.62913 12.8225 8.82071 13.0187 9.02696 13.2011C10.0384 14.0916 11.2437 14.7338 12.547 15.0766L13.0685 15.1563C13.2381 15.1655 13.4077 15.1527 13.5782 15.1444C13.8452 15.1306 14.1059 15.0583 14.3418 14.9327C14.4618 14.8708 14.579 14.8035 14.6929 14.731C14.6929 14.731 14.7323 14.7053 14.8075 14.6485C14.9312 14.5568 15.0073 14.4917 15.11 14.3845C15.186 14.3057 15.252 14.2131 15.3025 14.1077C15.374 13.9582 15.4455 13.6732 15.4748 13.4357C15.4968 13.2542 15.4904 13.1552 15.4876 13.0938C15.484 12.9957 15.4024 12.894 15.3135 12.8509L14.78 12.6117C14.78 12.6117 13.9825 12.2642 13.4957 12.0424C13.4444 12.02 13.3894 12.0073 13.3335 12.0048C13.2707 11.9984 13.2074 12.0054 13.1476 12.0255C13.0878 12.0456 13.0331 12.0782 12.987 12.1212V12.1194C12.9824 12.1194 12.921 12.1717 12.2582 12.9747C12.2202 13.0258 12.1678 13.0644 12.1077 13.0856C12.0476 13.1069 11.9826 13.1097 11.9209 13.0938C11.8611 13.0779 11.8026 13.0576 11.7458 13.0333C11.6321 12.9857 11.5927 12.9673 11.5148 12.9334L11.5102 12.9316C10.9858 12.7026 10.5002 12.3934 10.071 12.0149C9.95554 11.9141 9.84829 11.8041 9.73829 11.6977C9.37766 11.3524 9.06336 10.9617 8.80329 10.5354L8.74921 10.4483C8.71036 10.3898 8.67896 10.3267 8.65571 10.2604C8.62088 10.1257 8.71163 10.0175 8.71163 10.0175C8.71163 10.0175 8.93438 9.77366 9.03796 9.64166C9.12421 9.53196 9.20468 9.41783 9.27904 9.29975C9.38721 9.12558 9.42113 8.94683 9.36429 8.80841C9.10763 8.18141 8.84179 7.55716 8.56863 6.9375C8.51454 6.81466 8.35413 6.72666 8.20838 6.70925C8.15888 6.70375 8.10938 6.69825 8.05988 6.69458C7.93677 6.68846 7.81342 6.68969 7.69046 6.69825V6.69916Z" fill="#ADADB6"/>
</svg>
